#Comment line ignore any data following # character 
#Hierarchical Translation and Rotation (.htr) file 
[Header]	
#Header keywords are followed by a single value 
FileType HTR		#Single word string
DataType HTRS		#Translation followed by rotation and scale data
FileVersion 1		#integer
NumSegments 84		#integer
NumFrames 2		#integer
DataFrameRate 30		#integer, data frame rate in this file
EulerRotationOrder ZYX
CalibrationUnits mm
RotationUnits Degrees
GlobalAxisofGravity Y
BoneLengthAxis Y
ScaleFactor 1.00
[SegmentNames&Hierarchy]
#CHILD	PARENT
MASTER GLOBAL
root MASTER
chest root
L_mid_tent01 root
R_mid_tent01 root
spine01 root
Bip01_Neck chest
L_humerus chest
R_humerus chest
weapon_bone chest
Bip01_Head Bip01_Neck
eye_left_bone Bip01_Head
eye_right_bone Bip01_Head
L_forearm L_humerus
L_front_hand L_forearm
L_weapon_bone L_forearm
L_front_hand01_01 L_front_hand
L_front_hand02_01 L_front_hand
L_front_hand03_01 L_front_hand
L_front_hand01_02 L_front_hand01_01
L_front_hand02_02 L_front_hand02_01
L_front_hand03_02 L_front_hand03_01
R_forearm R_humerus
R_front_hand R_forearm
R_weapon_bone R_forearm
R_front_hand01_01 R_front_hand
R_front_hand02_01 R_front_hand
R_front_hand03_01 R_front_hand
R_front_hand01_02 R_front_hand01_01
R_front_hand02_02 R_front_hand02_01
R_front_hand03_02 R_front_hand03_01
null_rope01_connect L_mid_tent01
Rope1_Seg01 null_rope01_connect
Rope1_Seg02 Rope1_Seg01
Rope1_Seg03 Rope1_Seg02
Rope1_Seg04 Rope1_Seg03
Rope1_Seg05 Rope1_Seg04
Rope1_Seg06 Rope1_Seg05
Rope1_Seg07 Rope1_Seg06
Rope1_Seg09 Rope1_Seg07
L_mid_hand01 Rope1_Seg09
L_mid_hand02 Rope1_Seg09
L_mid_hand03 Rope1_Seg09
null_rope02_connect R_mid_tent01
Rope2_Seg01 null_rope02_connect
Rope2_Seg02 Rope2_Seg01
Rope2_Seg03 Rope2_Seg02
Rope2_Seg04 Rope2_Seg03
Rope2_Seg05 Rope2_Seg04
Rope2_Seg06 Rope2_Seg05
Rope2_Seg07 Rope2_Seg06
Rope2_Seg09 Rope2_Seg07
R_mid_hand01 Rope2_Seg09
R_mid_hand02 Rope2_Seg09
R_mid_hand03 Rope2_Seg09
spine02 spine01
spine03 spine02
pelvis spine03
null_rope03_connect pelvis
null_rope04_connect pelvis
Rope3_Seg01 null_rope03_connect
Rope3_Seg02 Rope3_Seg01
Rope3_Seg03 Rope3_Seg02
Rope3_Seg04 Rope3_Seg03
Rope3_Seg05 Rope3_Seg04
Rope3_Seg06 Rope3_Seg05
Rope3_Seg07 Rope3_Seg06
Rope3_Seg08 Rope3_Seg07
Rope3_Seg09 Rope3_Seg08
R_rear_hand01 Rope3_Seg09
R_rear_hand02 Rope3_Seg09
R_rear_hand03 Rope3_Seg09
Rope4_Seg01 null_rope04_connect
Rope4_Seg02 Rope4_Seg01
Rope4_Seg03 Rope4_Seg02
Rope4_Seg04 Rope4_Seg03
Rope4_Seg05 Rope4_Seg04
Rope4_Seg06 Rope4_Seg05
Rope4_Seg07 Rope4_Seg06
Rope4_Seg08 Rope4_Seg07
Rope4_Seg09 Rope4_Seg08
L_rear_hand01 Rope4_Seg09
L_rear_hand02 Rope4_Seg09
L_rear_hand03 Rope4_Seg09
[BasePosition]
#SegmentName Tx, Ty, Tz, Rx, Ry, Rz, BoneLength
MASTER 0.000000 0.000000 0.000000 -90.000000 0.000000 0.000000 10.000000 
root 0.000000 0.000000 0.000000 0.000000 0.000000 0.000000 10.000000 
chest 0.000000 0.000000 0.000000 0.000000 0.000000 0.000000 10.000000 
L_mid_tent01 0.000000 0.000000 0.000000 0.000000 0.000000 0.000000 10.000000 
R_mid_tent01 0.000000 0.000000 0.000000 0.000000 0.000000 0.000000 10.000000 
spine01 0.000000 0.000000 0.000000 0.000000 0.000000 0.000000 10.000000 
Bip01_Neck 0.000000 0.000000 0.000000 0.000000 0.000000 0.000000 10.000000 
L_humerus 0.000000 0.000000 0.000000 0.000000 0.000000 0.000000 10.000000 
R_humerus 0.000000 0.000000 0.000000 0.000000 0.000000 0.000000 10.000000 
weapon_bone 0.000000 0.000000 0.000000 0.000000 0.000000 0.000000 10.000000 
Bip01_Head 0.000000 0.000000 0.000000 0.000000 0.000000 0.000000 10.000000 
eye_left_bone 0.000000 0.000000 0.000000 0.000000 0.000000 0.000000 10.000000 
eye_right_bone 0.000000 0.000000 0.000000 0.000000 0.000000 0.000000 10.000000 
L_forearm 0.000000 0.000000 0.000000 0.000000 0.000000 0.000000 10.000000 
L_front_hand 0.000000 0.000000 0.000000 0.000000 0.000000 0.000000 10.000000 
L_weapon_bone 0.000000 0.000000 0.000000 0.000000 0.000000 0.000000 10.000000 
L_front_hand01_01 0.000000 0.000000 0.000000 0.000000 0.000000 0.000000 10.000000 
L_front_hand02_01 0.000000 0.000000 0.000000 0.000000 0.000000 0.000000 10.000000 
L_front_hand03_01 0.000000 0.000000 0.000000 0.000000 0.000000 0.000000 10.000000 
L_front_hand01_02 0.000000 0.000000 0.000000 0.000000 0.000000 0.000000 10.000000 
L_front_hand02_02 0.000000 0.000000 0.000000 0.000000 0.000000 0.000000 10.000000 
L_front_hand03_02 0.000000 0.000000 0.000000 0.000000 0.000000 0.000000 10.000000 
R_forearm 0.000000 0.000000 0.000000 0.000000 0.000000 0.000000 10.000000 
R_front_hand 0.000000 0.000000 0.000000 0.000000 0.000000 0.000000 10.000000 
R_weapon_bone 0.000000 0.000000 0.000000 0.000000 0.000000 0.000000 10.000000 
R_front_hand01_01 0.000000 0.000000 0.000000 0.000000 0.000000 0.000000 10.000000 
R_front_hand02_01 0.000000 0.000000 0.000000 0.000000 0.000000 0.000000 10.000000 
R_front_hand03_01 0.000000 0.000000 0.000000 0.000000 0.000000 0.000000 10.000000 
R_front_hand01_02 0.000000 0.000000 0.000000 0.000000 0.000000 0.000000 10.000000 
R_front_hand02_02 0.000000 0.000000 0.000000 0.000000 0.000000 0.000000 10.000000 
R_front_hand03_02 0.000000 0.000000 0.000000 0.000000 0.000000 0.000000 10.000000 
null_rope01_connect 0.000000 0.000000 0.000000 0.000000 0.000000 0.000000 10.000000 
Rope1_Seg01 0.000000 0.000000 0.000000 0.000000 0.000000 0.000000 10.000000 
Rope1_Seg02 0.000000 0.000000 0.000000 0.000000 0.000000 0.000000 10.000000 
Rope1_Seg03 0.000000 0.000000 0.000000 0.000000 0.000000 0.000000 10.000000 
Rope1_Seg04 0.000000 0.000000 0.000000 0.000000 0.000000 0.000000 10.000000 
Rope1_Seg05 0.000000 0.000000 0.000000 0.000000 0.000000 0.000000 10.000000 
Rope1_Seg06 0.000000 0.000000 0.000000 0.000000 0.000000 0.000000 10.000000 
Rope1_Seg07 0.000000 0.000000 0.000000 0.000000 0.000000 0.000000 10.000000 
Rope1_Seg09 0.000000 0.000000 0.000000 0.000000 0.000000 0.000000 10.000000 
L_mid_hand01 0.000000 0.000000 0.000000 0.000000 0.000000 0.000000 10.000000 
L_mid_hand02 0.000000 0.000000 0.000000 0.000000 0.000000 0.000000 10.000000 
L_mid_hand03 0.000000 0.000000 0.000000 0.000000 0.000000 0.000000 10.000000 
null_rope02_connect 0.000000 0.000000 0.000000 0.000000 0.000000 0.000000 10.000000 
Rope2_Seg01 0.000000 0.000000 0.000000 0.000000 0.000000 0.000000 10.000000 
Rope2_Seg02 0.000000 0.000000 0.000000 0.000000 0.000000 0.000000 10.000000 
Rope2_Seg03 0.000000 0.000000 0.000000 0.000000 0.000000 0.000000 10.000000 
Rope2_Seg04 0.000000 0.000000 0.000000 0.000000 0.000000 0.000000 10.000000 
Rope2_Seg05 0.000000 0.000000 0.000000 0.000000 0.000000 0.000000 10.000000 
Rope2_Seg06 0.000000 0.000000 0.000000 0.000000 0.000000 0.000000 10.000000 
Rope2_Seg07 0.000000 0.000000 0.000000 0.000000 0.000000 0.000000 10.000000 
Rope2_Seg09 0.000000 0.000000 0.000000 0.000000 0.000000 0.000000 10.000000 
R_mid_hand01 0.000000 0.000000 0.000000 0.000000 0.000000 0.000000 10.000000 
R_mid_hand02 0.000000 0.000000 0.000000 0.000000 0.000000 0.000000 10.000000 
R_mid_hand03 0.000000 0.000000 0.000000 0.000000 0.000000 0.000000 10.000000 
spine02 0.000000 0.000000 0.000000 0.000000 0.000000 0.000000 10.000000 
spine03 0.000000 0.000000 0.000000 0.000000 0.000000 0.000000 10.000000 
pelvis 0.000000 0.000000 0.000000 0.000000 0.000000 0.000000 10.000000 
null_rope03_connect 0.000000 0.000000 0.000000 0.000000 0.000000 0.000000 10.000000 
null_rope04_connect 0.000000 0.000000 0.000000 0.000000 0.000000 0.000000 10.000000 
Rope3_Seg01 0.000000 0.000000 0.000000 0.000000 0.000000 0.000000 10.000000 
Rope3_Seg02 0.000000 0.000000 0.000000 0.000000 0.000000 0.000000 10.000000 
Rope3_Seg03 0.000000 0.000000 0.000000 0.000000 0.000000 0.000000 10.000000 
Rope3_Seg04 0.000000 0.000000 0.000000 0.000000 0.000000 0.000000 10.000000 
Rope3_Seg05 0.000000 0.000000 0.000000 0.000000 0.000000 0.000000 10.000000 
Rope3_Seg06 0.000000 0.000000 0.000000 0.000000 0.000000 0.000000 10.000000 
Rope3_Seg07 0.000000 0.000000 0.000000 0.000000 0.000000 0.000000 10.000000 
Rope3_Seg08 0.000000 0.000000 0.000000 0.000000 0.000000 0.000000 10.000000 
Rope3_Seg09 0.000000 0.000000 0.000000 0.000000 0.000000 0.000000 10.000000 
R_rear_hand01 0.000000 0.000000 0.000000 0.000000 0.000000 0.000000 10.000000 
R_rear_hand02 0.000000 0.000000 0.000000 0.000000 0.000000 0.000000 10.000000 
R_rear_hand03 0.000000 0.000000 0.000000 0.000000 0.000000 0.000000 10.000000 
Rope4_Seg01 0.000000 0.000000 0.000000 0.000000 0.000000 0.000000 10.000000 
Rope4_Seg02 0.000000 0.000000 0.000000 0.000000 0.000000 0.000000 10.000000 
Rope4_Seg03 0.000000 0.000000 0.000000 0.000000 0.000000 0.000000 10.000000 
Rope4_Seg04 0.000000 0.000000 0.000000 0.000000 0.000000 0.000000 10.000000 
Rope4_Seg05 0.000000 0.000000 0.000000 0.000000 0.000000 0.000000 10.000000 
Rope4_Seg06 0.000000 0.000000 0.000000 0.000000 0.000000 0.000000 10.000000 
Rope4_Seg07 0.000000 0.000000 0.000000 0.000000 0.000000 0.000000 10.000000 
Rope4_Seg08 0.000000 0.000000 0.000000 0.000000 0.000000 0.000000 10.000000 
Rope4_Seg09 0.000000 0.000000 0.000000 0.000000 0.000000 0.000000 10.000000 
L_rear_hand01 0.000000 0.000000 0.000000 0.000000 0.000000 0.000000 10.000000 
L_rear_hand02 0.000000 0.000000 0.000000 0.000000 0.000000 0.000000 10.000000 
L_rear_hand03 0.000000 0.000000 0.000000 0.000000 0.000000 0.000000 10.000000 
#Beginning of Data. Separated by tabs
#Fr	Tx	Ty	Tz	Rx	Ry	Rz	SF
[MASTER]
5 0.000000 0.000000 0.000000 0.001660 0.001660 0.001660 0.000000
6 0.000000 0.000000 0.000000 0.001660 0.001660 0.001660 0.000000
[root]
5 151.868469 54.688847 833.530212 -88.581917 -10.449947 -90.639961 849.015625
6 198.611801 80.038742 946.579407 -88.581917 -10.449947 -90.639961 970.497498
[chest]
5 -84.512650 -34.090519 0.000000 -1.256746 3.485132 152.563477 91.129311
6 -84.512650 -34.090519 0.000000 -0.952585 3.487052 147.672348 91.129311
[L_mid_tent01]
5 27.299267 22.178547 -249.918549 -43.925152 48.608410 41.665592 252.381500
6 27.299259 22.178570 -249.918549 -41.729160 48.432663 39.133743 252.381500
[R_mid_tent01]
5 23.228794 24.509907 226.238495 -172.590225 -30.337740 96.839722 228.744751
6 23.228794 24.509907 226.238495 -177.149155 -28.841871 99.230927 228.744751
[spine01]
5 -0.361383 -0.195265 0.000000 0.001911 0.001364 18.961117 0.410763
6 -0.361383 -0.195265 0.000000 0.001912 0.001362 19.057692 0.410763
[Bip01_Neck]
5 165.484543 71.581718 0.000119 176.643677 -1.657967 43.431911 180.302734
6 165.484543 71.581718 0.000119 176.643677 -1.657967 43.431911 180.302734
[L_humerus]
5 -13.983130 -135.272980 -120.471481 149.809265 43.349075 -149.002625 181.680161
6 -13.983130 -135.272980 -120.471481 154.891159 38.917690 -150.369476 181.680161
[R_humerus]
5 -13.983309 -135.273102 125.287651 -173.282532 -52.863964 -152.645035 184.909012
6 -13.983309 -135.273102 125.287651 -175.612534 -45.949104 -152.640121 184.909012
[weapon_bone]
5 235.964890 -300.705902 0.000000 0.000000 -89.951546 -128.212341 382.234833
6 235.964890 -300.705902 0.000000 0.000000 -89.951546 -128.212341 382.234833
[Bip01_Head]
5 213.369049 185.925308 9.069138 -2.766586 10.346912 -38.640316 283.155090
6 213.385651 185.878922 9.668047 -3.313680 11.113287 -40.828407 283.156982
[eye_left_bone]
5 -24.626970 125.451866 -64.772606 0.000000 -90.000000 -99.840431 143.318359
6 -24.626970 125.451866 -64.772606 0.000000 -90.000000 -99.840431 143.318359
[eye_right_bone]
5 -24.626970 125.451866 64.327362 0.000000 -89.965736 80.156380 143.117676
6 -24.626970 125.451866 64.327362 0.000000 -89.965736 80.156380 143.117676
[L_forearm]
5 322.776093 0.000000 -0.000119 0.000377 0.002317 -71.521927 322.776093
6 322.776093 0.000000 -0.000119 0.000468 0.002300 -66.983902 322.776093
[L_front_hand]
5 241.149185 -0.042021 -3.300071 171.991989 -1.835918 -27.420609 241.171753
6 241.149185 -0.042021 -3.300071 169.557220 -1.835500 -27.423143 241.171753
[L_weapon_bone]
5 156.183838 0.000000 0.000000 0.000014 0.000007 0.000001 156.183838
6 156.183838 0.000000 0.000000 0.000014 0.000007 0.000001 156.183838
[L_front_hand01_01]
5 86.095154 20.947098 -0.655860 -0.366594 -0.477154 75.385574 88.609184
6 86.095154 20.947098 -0.655860 -0.366594 -0.477154 75.385574 88.609184
[L_front_hand02_01]
5 86.935165 -11.437475 24.513514 154.399796 -59.883835 -61.369587 91.046425
6 86.935165 -11.437475 24.513514 154.399811 -59.883846 -61.369606 91.046425
[L_front_hand03_01]
5 86.637497 -14.123976 -20.424902 -153.913849 58.118122 -62.702866 90.126129
6 86.637497 -14.123976 -20.424902 -153.913849 58.118122 -62.702866 90.126129
[L_front_hand01_02]
5 71.020905 -0.000179 0.000030 0.000334 -0.002323 -106.379700 71.020905
6 71.020905 -0.000179 0.000030 0.000334 -0.002323 -106.379684 71.020905
[L_front_hand02_02]
5 71.020927 -0.000119 0.000060 0.000334 -0.002323 -106.379700 71.020927
6 71.020927 -0.000119 0.000060 0.000334 -0.002323 -106.379684 71.020927
[L_front_hand03_02]
5 71.020905 -0.000060 0.000060 0.000334 -0.002323 -106.379700 71.020905
6 71.020905 -0.000060 0.000060 0.000334 -0.002323 -106.379684 71.020905
[R_forearm]
5 322.776428 -0.000060 0.000030 0.165256 -0.132216 -51.932091 322.776428
6 322.776428 -0.000060 0.000030 0.151151 -0.148871 -46.104656 322.776428
[R_front_hand]
5 238.847015 -0.006795 2.210259 -115.326790 -10.645156 -26.315651 238.857239
6 238.847015 -0.006795 2.210259 -143.498703 -10.644090 -26.315245 238.857239
[R_weapon_bone]
5 155.664093 0.002503 -0.000030 0.003487 0.001180 -90.988930 155.664078
6 155.664093 0.002503 -0.000030 0.003487 0.001180 -90.988930 155.664078
[R_front_hand01_01]
5 87.624611 14.231146 22.918642 -154.633499 -59.950619 61.746044 91.683487
6 87.624611 14.231146 22.918642 -154.633514 -59.950634 61.746063 91.683487
[R_front_hand02_01]
5 89.356956 14.367283 -19.491137 154.602676 58.302864 63.744389 92.579636
6 89.356956 14.367283 -19.491137 154.602661 58.302849 63.744389 92.579636
[R_front_hand03_01]
5 87.286232 -22.307278 -0.143439 0.162155 -0.423168 -75.767921 90.091743
6 87.286232 -22.307278 -0.143439 0.162155 -0.423168 -75.767921 90.091743
[R_front_hand01_02]
5 71.020905 0.000060 0.000119 0.002323 -0.000334 106.381714 71.020905
6 71.020905 0.000060 0.000119 0.002323 -0.000334 106.381714 71.020905
[R_front_hand02_02]
5 71.020844 -0.000030 -0.000119 0.002323 -0.000334 106.381714 71.020836
6 71.020844 -0.000030 -0.000119 0.002323 -0.000334 106.381714 71.020836
[R_front_hand03_02]
5 71.020905 0.000000 0.000030 0.002323 -0.000334 106.381714 71.020905
6 71.020905 0.000000 0.000030 0.002323 -0.000334 106.381714 71.020905
[null_rope01_connect]
5 328.732483 0.000000 -0.000238 -172.984497 -29.777826 -149.182510 328.732483
6 328.732483 0.000000 -0.000238 -168.299683 -30.969471 -150.201401 328.732483
[Rope1_Seg01]
5 -0.000025 -0.000064 0.000017 113.584198 2.444395 145.411484 0.000071
6 -0.000022 -0.000063 0.000021 113.766556 16.571342 146.210617 0.000070
[Rope1_Seg02]
5 139.999863 -0.000179 0.000000 0.279199 -2.664655 -11.043890 139.999863
6 139.999863 -0.000179 0.000000 0.517260 0.711961 -7.969280 139.999863
[Rope1_Seg03]
5 139.999924 0.000060 -0.000060 2.771636 -4.753035 -16.713964 139.999924
6 139.999924 0.000060 -0.000060 1.886537 0.715094 -11.874397 139.999924
[Rope1_Seg04]
5 139.999924 -0.000060 -0.000119 7.251710 -7.144000 -20.186420 139.999924
6 139.999924 -0.000060 -0.000119 6.132761 -0.161250 -17.869593 139.999924
[Rope1_Seg05]
5 139.999832 0.000119 -0.000060 4.635430 1.963147 -15.301550 139.999832
6 139.999832 0.000119 -0.000060 4.799075 2.985096 -12.665246 139.999832
[Rope1_Seg06]
5 139.999954 0.000119 -0.000060 5.862802 2.381969 -12.946521 139.999954
6 139.999954 0.000119 -0.000060 4.040955 2.452548 -8.274638 139.999954
[Rope1_Seg07]
5 139.999985 0.000060 0.000000 7.825319 -0.522122 -9.264580 139.999985
6 139.999985 0.000060 0.000000 5.415670 0.655457 -6.476833 139.999985
[Rope1_Seg09]
5 121.602913 0.000119 -0.000089 -89.793175 -1.359789 0.847147 121.602913
6 121.602913 0.000119 -0.000089 -89.793175 -1.359789 0.847147 121.602913
[L_mid_hand01]
5 103.859421 1.038730 8.195221 109.056190 -40.604694 -13.201403 104.187431
6 103.859421 1.038730 8.195221 109.056198 -40.604706 -13.201404 104.187431
[L_mid_hand02]
5 105.572853 -4.139662 -10.864139 -146.713593 31.476528 -37.902313 106.211075
6 105.572853 -4.139662 -10.864139 -146.713593 31.476528 -37.902309 106.211075
[L_mid_hand03]
5 104.641464 17.579376 -3.913581 -14.267233 12.322316 43.898396 106.179977
6 104.641464 17.579376 -3.913581 -14.267233 12.322316 43.898396 106.179977
[null_rope02_connect]
5 328.732849 0.000179 -0.000119 168.991592 57.416454 -12.645550 328.732849
6 328.732849 0.000179 -0.000119 174.878113 59.610668 -5.688398 328.732849
[Rope2_Seg01]
5 -0.000023 0.000081 0.000102 -85.848679 47.403847 4.712324 0.000132
6 -0.000020 0.000082 0.000099 -109.948067 56.581387 -10.340615 0.000129
[Rope2_Seg02]
5 139.999741 -0.000060 -0.000119 -22.194555 13.435927 27.302917 139.999756
6 139.999741 -0.000060 -0.000119 -16.995199 6.618734 18.560390 139.999756
[Rope2_Seg03]
5 140.000107 0.000030 0.000000 -18.056213 5.839807 39.251781 140.000107
6 140.000107 0.000030 0.000000 -16.853817 2.677632 28.604240 140.000107
[Rope2_Seg04]
5 139.999802 0.000000 -0.000060 -4.040799 -10.129299 18.811754 139.999802
6 139.999802 0.000000 -0.000060 -7.421332 -3.932193 22.437744 139.999802
[Rope2_Seg05]
5 139.999985 -0.000060 0.000119 -1.358008 -17.471718 10.909616 139.999985
6 139.999985 -0.000060 0.000119 -1.784572 -12.585305 11.758033 139.999985
[Rope2_Seg06]
5 139.999893 -0.000030 -0.000119 0.533476 -9.216464 6.899479 139.999893
6 139.999893 -0.000030 -0.000119 -0.571147 -12.555665 7.553114 139.999893
[Rope2_Seg07]
5 139.999893 0.000060 -0.000060 0.949155 -4.799610 4.101148 139.999893
6 139.999893 0.000060 -0.000060 0.538749 -5.770906 4.878501 139.999893
[Rope2_Seg09]
5 121.338966 0.000089 -0.000060 33.793236 -1.359788 -0.847141 121.338966
6 121.338966 0.000089 -0.000060 33.793236 -1.359788 -0.847141 121.338966
[R_mid_hand01]
5 104.680779 11.144459 -10.335981 -37.204067 31.906805 37.576252 105.778534
6 104.680779 11.144459 -10.335981 -37.204067 31.906805 37.576260 105.778534
[R_mid_hand02]
5 104.070427 2.443552 8.231699 70.367462 -42.427391 14.067809 104.424065
6 104.070427 2.443552 8.231699 70.367462 -42.427391 14.067809 104.424065
[R_mid_hand03]
5 106.028137 -11.221827 -5.996406 -169.893616 12.226661 -47.211018 106.788818
6 106.028137 -11.221827 -5.996406 -169.893616 12.226661 -47.211029 106.788818
[spine02]
5 129.756927 0.001550 0.000119 -0.318230 -4.046262 -3.349199 129.756927
6 129.756927 0.001550 0.000119 -0.297107 -4.048004 -3.648669 129.756927
[spine03]
5 78.613998 0.083720 -4.898955 1.490393 4.005878 10.519051 78.766541
6 78.613998 0.083659 -4.898957 1.503299 4.001092 10.705327 78.766541
[pelvis]
5 169.435242 0.051022 0.000000 -0.019128 -0.190388 2.038864 169.435257
6 169.435242 0.051022 0.000000 -0.020392 -0.190174 2.416118 169.435257
[null_rope03_connect]
5 -1.257226 -2.466202 137.391083 -12.165095 -88.131981 84.505516 137.418976
6 -1.257226 -2.466202 137.391083 -11.995418 -88.111145 83.974152 137.418976
[null_rope04_connect]
5 -1.259640 -2.480268 -137.844437 -12.165095 -88.131981 84.505516 137.872513
6 -1.259640 -2.480268 -137.844437 -11.995418 -88.111145 83.974152 137.872513
[Rope3_Seg01]
5 0.000010 0.000038 -0.000114 -116.726257 4.863433 -25.632021 0.000121
6 0.000010 0.000038 -0.000114 -110.654900 12.287952 -25.830629 0.000121
[Rope3_Seg02]
5 139.999924 -0.000119 0.000060 4.428536 6.055028 18.452667 139.999924
6 139.999924 -0.000119 0.000060 1.883277 9.163401 15.937655 139.999924
[Rope3_Seg03]
5 139.999924 -0.000119 0.000119 -1.382737 11.271996 7.206048 139.999924
6 139.999924 -0.000119 0.000119 -1.770305 8.943743 3.297005 139.999924
[Rope3_Seg04]
5 139.999924 0.000119 0.000000 1.315212 -0.853335 22.371780 139.999924
6 139.999924 0.000119 0.000000 1.551166 2.618803 18.707109 139.999924
[Rope3_Seg05]
5 139.999924 -0.000238 0.000060 -5.538247 -7.698190 25.030195 139.999924
6 139.999924 -0.000238 0.000060 -2.493568 -1.350154 22.662926 139.999924
[Rope3_Seg06]
5 139.999893 -0.000119 -0.000060 -2.383976 -2.703428 7.981248 139.999893
6 139.999893 -0.000119 -0.000060 -1.666950 -0.512194 8.296368 139.999893
[Rope3_Seg07]
5 139.999771 0.000060 -0.000119 -1.146770 -1.397781 4.072468 139.999771
6 139.999771 0.000060 -0.000119 -0.885215 -0.280963 4.416616 139.999771
[Rope3_Seg08]
5 139.999985 -0.000060 0.000000 -0.489880 -0.834466 2.285417 139.999985
6 139.999985 -0.000060 0.000000 -0.383629 -0.197602 2.539681 139.999985
[Rope3_Seg09]
5 90.185997 -0.000179 -0.000060 89.793228 -1.359877 -0.847183 90.185997
6 90.185997 -0.000179 -0.000060 89.793228 -1.359877 -0.847183 90.185997
[R_rear_hand01]
5 103.366196 -6.073594 -10.757982 -164.755127 19.627697 -40.352161 104.101845
6 103.366196 -6.073594 -10.757982 -164.755127 19.627697 -40.352161 104.101845
[R_rear_hand02]
5 100.509819 12.039542 -7.992327 -30.792652 24.782448 38.141541 101.543350
6 100.509819 12.039542 -7.992327 -30.792652 24.782448 38.141541 101.543350
[R_rear_hand03]
5 101.539970 5.215704 5.435467 82.448334 -41.048244 8.840380 101.819031
6 101.539970 5.215704 5.435467 82.448364 -41.048260 8.840381 101.819031
[Rope4_Seg01]
5 -0.000018 -0.000068 -0.000153 52.104713 -11.218863 -162.166321 0.000168
6 -0.000018 -0.000066 -0.000153 51.192417 -11.113056 -165.245819 0.000167
[Rope4_Seg02]
5 139.999985 0.000060 0.000119 -11.286602 9.291954 -4.394269 139.999985
6 139.999985 0.000060 0.000119 -10.592489 8.694944 -3.341481 139.999985
[Rope4_Seg03]
5 139.999924 0.000000 -0.000238 -8.532445 12.726032 -3.252095 139.999924
6 139.999924 0.000000 -0.000238 -8.096178 12.102293 -2.283934 139.999924
[Rope4_Seg04]
5 139.999985 0.000000 0.000119 -3.204981 14.203971 0.908575 139.999985
6 139.999985 0.000000 0.000119 -3.285219 15.062491 1.558631 139.999985
[Rope4_Seg05]
5 139.999802 -0.000060 -0.000119 -2.744931 12.805732 -1.321975 139.999802
6 139.999802 -0.000060 -0.000119 -2.369418 13.810275 0.168127 139.999802
[Rope4_Seg06]
5 139.999924 0.000000 0.000060 -3.864897 17.128424 -8.082275 139.999924
6 139.999924 0.000000 0.000060 -3.507798 14.264497 -6.848437 139.999924
[Rope4_Seg07]
5 139.999802 0.000000 0.000000 -0.622580 18.789762 -8.224164 139.999802
6 139.999802 0.000000 0.000000 -1.444201 14.973400 -7.681337 139.999802
[Rope4_Seg08]
5 139.999924 0.000000 0.000119 0.175306 11.185671 -4.166287 139.999924
6 139.999924 0.000000 0.000119 -0.916965 9.727706 -3.616053 139.999924
[Rope4_Seg09]
5 90.185791 0.000060 0.000060 -135.617828 2.228885 0.850567 90.185791
6 90.185791 0.000060 0.000060 -135.617828 2.228885 0.850567 90.185791
[L_rear_hand01]
5 101.696655 -8.392275 -7.654577 -31.684446 -23.583002 144.025742 102.329041
6 101.696655 -8.392275 -7.654577 -31.684452 -23.583008 144.025742 102.329041
[L_rear_hand02]
5 102.726799 -1.568258 5.773216 82.701546 38.753956 171.553619 102.900848
6 102.726799 -1.568258 5.773216 82.701553 38.753956 171.553619 102.900848
[L_rear_hand03]
5 104.552910 9.721220 -10.420293 -163.975403 -19.004421 -142.009338 105.519653
6 104.552910 9.721220 -10.420293 -163.975388 -19.004423 -142.009338 105.519653
